<svg id="Layer_1" data-name="Layer 1" xmlns="http://www.w3.org/2000/svg" viewBox="0 0 144 144"><defs><style>.cls-1{fill:#d4145a}</style></defs><title>logo</title><path class="cls-1" d="M66 46H3v53h63V46zm-3 4v6h-8v-6h8zm-13 0v6h-8v-6h8zm-11 0v6h-9v-6h9zm-13 0v6h-7v-6h7zM6 50h9v6H6v-6zm0 10h57v26H6V60zm0 31h9v5H6v-5zm13 5v-5h7v5h-7zm11 0v-5h9v5h-9zm12 0v-5h8v5h-8zm13 0v-5h8v5h-8zm30.21-23.61l-1.28 2.42v8.12h-4.16V56.5h4.15v11.44H84l5.36-11.44h4.15l-5.77 11.78 5.78 14.65h-4.27zm23.63 10.53h-4.19l-.72-4.79h-5.1l-.72 4.79h-3.8l4.23-26.42h6.08zm-9.48-8.38h4l-2-13.36h-.08zm11.41-18.04h6.57c4.15 0 6.19 2.3 6.19 6.53v13.36c0 4.23-2 6.53-6.19 6.53h-6.57V56.5zm4.15 3.77v18.88h2.34c1.32 0 2.11-.68 2.11-2.57V62.84c0-1.89-.79-2.57-2.11-2.57h-2.34zm19.93 22.65a8.13 8.13 0 0 1-.38-3.25v-4.14c0-2.45-.83-3.36-2.72-3.36h-1.43v10.75h-4.15V56.5h6.27c4.3 0 6.15 2 6.15 6.08v2.08c0 2.72-.87 4.45-2.72 5.32v.08c2.08.87 2.76 2.83 2.76 5.59v4.08a7.77 7.77 0 0 0 .45 3.21h-4.23zm-4.53-22.65v8.12h1.62c1.55 0 2.49-.68 2.49-2.79V63c0-1.89-.64-2.72-2.11-2.72h-2z"/></svg>